<mxfile host="Electron" modified="2023-12-05T14:26:53.893Z" agent="Mozilla/5.0 (Windows NT 10.0; Win64; x64) AppleWebKit/537.36 (KHTML, like Gecko) draw.io/21.6.8 Chrome/114.0.5735.289 Electron/25.5.0 Safari/537.36" etag="cYhdoSLVq6Z9GItD9fJQ" version="21.6.8" type="device">
  <diagram name="PÃ¡gina-1" id="cPSNi7r_4B1eX6Dvwcpm">
    <mxGraphModel dx="1182" dy="683" grid="0" gridSize="10" guides="1" tooltips="1" connect="1" arrows="1" fold="1" page="1" pageScale="1" pageWidth="850" pageHeight="1100" math="0" shadow="0">
      <root>
        <mxCell id="0" />
        <mxCell id="1" parent="0" />
        <mxCell id="J08tAfY-yrUdoFLxVI3k-48" style="edgeStyle=orthogonalEdgeStyle;rounded=0;orthogonalLoop=1;jettySize=auto;html=1;endArrow=none;endFill=0;" parent="1" edge="1">
          <mxGeometry relative="1" as="geometry">
            <mxPoint x="400" y="568" as="targetPoint" />
            <mxPoint x="400.0256410256409" y="668" as="sourcePoint" />
            <Array as="points">
              <mxPoint x="400" y="628" />
              <mxPoint x="400" y="628" />
            </Array>
          </mxGeometry>
        </mxCell>
        <mxCell id="J08tAfY-yrUdoFLxVI3k-49" style="edgeStyle=orthogonalEdgeStyle;rounded=0;orthogonalLoop=1;jettySize=auto;html=1;exitX=1;exitY=0.5;exitDx=0;exitDy=0;entryX=0;entryY=0.5;entryDx=0;entryDy=0;" parent="1" edge="1">
          <mxGeometry relative="1" as="geometry">
            <mxPoint x="660" y="668" as="targetPoint" />
            <mxPoint x="420" y="668" as="sourcePoint" />
          </mxGeometry>
        </mxCell>
        <mxCell id="J08tAfY-yrUdoFLxVI3k-50" style="edgeStyle=orthogonalEdgeStyle;rounded=0;orthogonalLoop=1;jettySize=auto;html=1;exitX=0.5;exitY=1;exitDx=0;exitDy=0;entryX=0.5;entryY=0;entryDx=0;entryDy=0;" parent="1" source="J08tAfY-yrUdoFLxVI3k-51" target="cv347Kk7mJgYV-cYB38--7" edge="1">
          <mxGeometry relative="1" as="geometry">
            <mxPoint x="360" y="878" as="targetPoint" />
            <Array as="points">
              <mxPoint x="400" y="728" />
              <mxPoint x="400" y="788" />
              <mxPoint x="558" y="788" />
            </Array>
          </mxGeometry>
        </mxCell>
        <mxCell id="cv347Kk7mJgYV-cYB38--10" value="4. props := retrieve(ownerId)" style="edgeLabel;html=1;align=center;verticalAlign=middle;resizable=0;points=[];" vertex="1" connectable="0" parent="J08tAfY-yrUdoFLxVI3k-50">
          <mxGeometry x="-0.059" relative="1" as="geometry">
            <mxPoint x="41" y="-10" as="offset" />
          </mxGeometry>
        </mxCell>
        <mxCell id="cv347Kk7mJgYV-cYB38--13" style="edgeStyle=orthogonalEdgeStyle;rounded=0;orthogonalLoop=1;jettySize=auto;html=1;entryX=0.5;entryY=0;entryDx=0;entryDy=0;" edge="1" parent="1" source="J08tAfY-yrUdoFLxVI3k-51" target="cv347Kk7mJgYV-cYB38--12">
          <mxGeometry relative="1" as="geometry" />
        </mxCell>
        <mxCell id="cv347Kk7mJgYV-cYB38--15" value="5. projs := retrieve(prop.id, PENDENTE) *" style="edgeLabel;html=1;align=center;verticalAlign=middle;resizable=0;points=[];" vertex="1" connectable="0" parent="cv347Kk7mJgYV-cYB38--13">
          <mxGeometry x="0.1376" y="1" relative="1" as="geometry">
            <mxPoint x="-1" y="3" as="offset" />
          </mxGeometry>
        </mxCell>
        <mxCell id="cv347Kk7mJgYV-cYB38--18" style="edgeStyle=orthogonalEdgeStyle;rounded=0;orthogonalLoop=1;jettySize=auto;html=1;exitX=0.25;exitY=1;exitDx=0;exitDy=0;" edge="1" parent="1" source="J08tAfY-yrUdoFLxVI3k-51" target="cv347Kk7mJgYV-cYB38--17">
          <mxGeometry relative="1" as="geometry" />
        </mxCell>
        <mxCell id="cv347Kk7mJgYV-cYB38--20" value="6. stages := retrieve(proj.id, ENVIADO) *" style="edgeLabel;html=1;align=center;verticalAlign=middle;resizable=0;points=[];" vertex="1" connectable="0" parent="cv347Kk7mJgYV-cYB38--18">
          <mxGeometry x="0.0287" y="2" relative="1" as="geometry">
            <mxPoint x="-10" y="-13" as="offset" />
          </mxGeometry>
        </mxCell>
        <mxCell id="J08tAfY-yrUdoFLxVI3k-51" value=":FormularioManager" style="rounded=0;whiteSpace=wrap;html=1;" parent="1" vertex="1">
          <mxGeometry x="300" y="668" width="120" height="60" as="geometry" />
        </mxCell>
        <mxCell id="J08tAfY-yrUdoFLxVI3k-52" value="feedbackForm(ownerId, comment, approve)" style="text;html=1;align=center;verticalAlign=middle;resizable=0;points=[];autosize=1;strokeColor=none;fillColor=none;" parent="1" vertex="1">
          <mxGeometry x="320" y="538" width="260" height="30" as="geometry" />
        </mxCell>
        <mxCell id="cv347Kk7mJgYV-cYB38--1" value=":DaoManager" style="rounded=0;whiteSpace=wrap;html=1;" vertex="1" parent="1">
          <mxGeometry x="660" y="668" width="120" height="60" as="geometry" />
        </mxCell>
        <mxCell id="cv347Kk7mJgYV-cYB38--2" value="1. getPropriedadeDAO()" style="text;html=1;align=center;verticalAlign=middle;resizable=0;points=[];autosize=1;strokeColor=none;fillColor=none;" vertex="1" parent="1">
          <mxGeometry x="460" y="638" width="150" height="30" as="geometry" />
        </mxCell>
        <mxCell id="cv347Kk7mJgYV-cYB38--3" value="2. getProjetoDAO()" style="text;html=1;align=center;verticalAlign=middle;resizable=0;points=[];autosize=1;strokeColor=none;fillColor=none;" vertex="1" parent="1">
          <mxGeometry x="470" y="668" width="130" height="30" as="geometry" />
        </mxCell>
        <mxCell id="cv347Kk7mJgYV-cYB38--4" style="edgeStyle=orthogonalEdgeStyle;rounded=0;orthogonalLoop=1;jettySize=auto;html=1;exitX=1;exitY=0.5;exitDx=0;exitDy=0;entryX=0;entryY=0.5;entryDx=0;entryDy=0;" edge="1" parent="1">
          <mxGeometry relative="1" as="geometry">
            <mxPoint x="660" y="697.3800000000001" as="targetPoint" />
            <mxPoint x="420" y="697.3800000000001" as="sourcePoint" />
          </mxGeometry>
        </mxCell>
        <mxCell id="cv347Kk7mJgYV-cYB38--5" style="edgeStyle=orthogonalEdgeStyle;rounded=0;orthogonalLoop=1;jettySize=auto;html=1;exitX=1;exitY=0.5;exitDx=0;exitDy=0;entryX=0;entryY=0.5;entryDx=0;entryDy=0;" edge="1" parent="1">
          <mxGeometry relative="1" as="geometry">
            <mxPoint x="660" y="727.3700000000001" as="targetPoint" />
            <mxPoint x="420" y="727.3700000000001" as="sourcePoint" />
          </mxGeometry>
        </mxCell>
        <mxCell id="cv347Kk7mJgYV-cYB38--6" value="3. getEtapaProjetoDAO()" style="text;html=1;align=center;verticalAlign=middle;resizable=0;points=[];autosize=1;strokeColor=none;fillColor=none;" vertex="1" parent="1">
          <mxGeometry x="455" y="698" width="160" height="30" as="geometry" />
        </mxCell>
        <mxCell id="cv347Kk7mJgYV-cYB38--7" value=":PropriedadeDAO()" style="rounded=0;whiteSpace=wrap;html=1;" vertex="1" parent="1">
          <mxGeometry x="495" y="848" width="125" height="60" as="geometry" />
        </mxCell>
        <mxCell id="cv347Kk7mJgYV-cYB38--12" value=":ProjetoDAO()" style="rounded=0;whiteSpace=wrap;html=1;" vertex="1" parent="1">
          <mxGeometry x="297.5" y="898" width="125" height="60" as="geometry" />
        </mxCell>
        <mxCell id="cv347Kk7mJgYV-cYB38--17" value=":EtapaProjetoDAO()" style="rounded=0;whiteSpace=wrap;html=1;" vertex="1" parent="1">
          <mxGeometry x="90" y="858" width="125" height="60" as="geometry" />
        </mxCell>
        <mxCell id="cv347Kk7mJgYV-cYB38--22" style="edgeStyle=orthogonalEdgeStyle;rounded=0;orthogonalLoop=1;jettySize=auto;html=1;exitX=0;exitY=0.5;exitDx=0;exitDy=0;entryX=0.25;entryY=0;entryDx=0;entryDy=0;" edge="1" parent="1" source="J08tAfY-yrUdoFLxVI3k-51" target="J08tAfY-yrUdoFLxVI3k-51">
          <mxGeometry relative="1" as="geometry">
            <mxPoint x="300" y="668" as="targetPoint" />
            <Array as="points">
              <mxPoint x="300" y="708" />
              <mxPoint x="260" y="708" />
              <mxPoint x="260" y="638" />
              <mxPoint x="330" y="638" />
            </Array>
          </mxGeometry>
        </mxCell>
        <mxCell id="cv347Kk7mJgYV-cYB38--25" value="7. [approve == true] approveForm(stage.id, comment)" style="edgeLabel;html=1;align=center;verticalAlign=middle;resizable=0;points=[];" vertex="1" connectable="0" parent="cv347Kk7mJgYV-cYB38--22">
          <mxGeometry x="0.1543" y="1" relative="1" as="geometry">
            <mxPoint x="-23" y="-25" as="offset" />
          </mxGeometry>
        </mxCell>
        <mxCell id="cv347Kk7mJgYV-cYB38--29" value="8. [approve == false] repproveForm(stage.id, comment)" style="edgeLabel;html=1;align=center;verticalAlign=middle;resizable=0;points=[];" vertex="1" connectable="0" parent="1">
          <mxGeometry x="243.99945439050526" y="627.9956410256411" as="geometry" />
        </mxCell>
      </root>
    </mxGraphModel>
  </diagram>
</mxfile>
